
<svg width="100" height="100" viewBox="0 0 100 100" fill="none" xmlns="http://www.w3.org/2000/svg">
  <path d="M80.1 91.2L57.8 91.2L46.5 91.2L38.5 91.2L23.6 91.2C21.6 91.2 20 89.7 20 87.6L20 25C20 22.9 21.6 21.4 23.6 21.4L27.1 21.4L27.1 10.9L36.3 10.9C36.7 8.9 38.5 7.5 40.7 7.5L59.5 7.5C61.5 7.5 63.2 8.9 63.8 10.9L73 10.9L73 21.4L76.5 21.4C78.5 21.4 80.1 23 80.1 25L80.1 87.6C80.1 89.7 78.5 91.2 80.1 91.2Z" fill="#E24536"/>
  <path d="M73 21.4L78.5 21.4C78.5 21.4 80.1 23 80.1 25L80.1 87.6C80.1 89.7 78.5 91.2 76.5 91.2L80.1 91.2L80.1 25C80.1 23 78.5 21.4 76.5 21.4L73 21.4Z" fill="#C32F2F"/>
  <path d="M57.8 91.2L46.5 91.2L38.5 91.2L42.5 91.2L57.8 91.2Z" fill="#C32F2F"/>
  <path d="M73 10.9L63.8 10.9C63.2 8.9 61.5 7.5 59.5 7.5L40.7 7.5C38.5 7.5 36.7 8.9 36.3 10.9L27.1 10.9L27.1 21.4L73 21.4L73 10.9Z" fill="#E24536"/>
  <path d="M36.3 10.9C36.7 8.9 38.5 7.5 40.7 7.5L59.5 7.5C61.5 7.5 63.2 8.9 63.8 10.9" stroke="#FFFFFF" strokeWidth="2" strokeMiterlimit="10" strokeLinecap="round"/>
  <path d="M27.1 21.4L27.1 10.9L36.3 10.9" stroke="#FFFFFF" strokeWidth="2" strokeMiterlimit="10" strokeLinecap="round"/>
  <path d="M63.8 10.9L73 10.9L73 21.4" stroke="#FFFFFF" strokeWidth="2" strokeMiterlimit="10" strokeLinecap="round"/>
  <path d="M24 53.3L33.9 53.3L41.9 41.2L51.3 63.8L59.2 53.3L76.1 53.3" stroke="#FFFFFF" strokeWidth="2" strokeMiterlimit="10" strokeLinecap="round" strokeLinejoin="round"/>
</svg>
